<svg width="183" height="138" viewBox="0 0 183 138" fill="none" xmlns="http://www.w3.org/2000/svg">
<g opacity="0.4">
<ellipse cx="3.26786" cy="8.625" rx="3.26786" ry="2.875" fill="#102A27" fill-opacity="0.5"/>
<ellipse cx="42.4817" cy="8.625" rx="3.26786" ry="2.875" fill="#102A27" fill-opacity="0.5"/>
<ellipse cx="81.6966" cy="8.625" rx="3.26786" ry="2.875" fill="#102A27" fill-opacity="0.5"/>
<ellipse cx="120.91" cy="8.625" rx="3.26786" ry="2.875" fill="#102A27" fill-opacity="0.5"/>
<ellipse cx="160.125" cy="8.625" rx="3.26786" ry="2.875" fill="#102A27" fill-opacity="0.5"/>
<ellipse cx="22.8753" cy="2.875" rx="3.26786" ry="2.875" fill="#102A27" fill-opacity="0.5"/>
<ellipse cx="62.0891" cy="2.875" rx="3.26786" ry="2.875" fill="#102A27" fill-opacity="0.5"/>
<ellipse cx="101.304" cy="2.875" rx="3.26786" ry="2.875" fill="#102A27" fill-opacity="0.5"/>
<ellipse cx="140.518" cy="2.875" rx="3.26786" ry="2.875" fill="#102A27" fill-opacity="0.5"/>
<ellipse cx="179.732" cy="2.875" rx="3.26786" ry="2.875" fill="#102A27" fill-opacity="0.5"/>
<ellipse cx="3.26786" cy="20.125" rx="3.26786" ry="2.875" fill="#102A27" fill-opacity="0.5"/>
<ellipse cx="42.4817" cy="20.125" rx="3.26786" ry="2.875" fill="#102A27" fill-opacity="0.5"/>
<ellipse cx="81.6966" cy="20.125" rx="3.26786" ry="2.875" fill="#102A27" fill-opacity="0.5"/>
<ellipse cx="120.91" cy="20.125" rx="3.26786" ry="2.875" fill="#102A27" fill-opacity="0.5"/>
<ellipse cx="160.125" cy="20.125" rx="3.26786" ry="2.875" fill="#102A27" fill-opacity="0.5"/>
<ellipse cx="22.8753" cy="14.375" rx="3.26786" ry="2.875" fill="#102A27" fill-opacity="0.5"/>
<ellipse cx="62.0891" cy="14.375" rx="3.26786" ry="2.875" fill="#102A27" fill-opacity="0.5"/>
<ellipse cx="101.304" cy="14.375" rx="3.26786" ry="2.875" fill="#102A27" fill-opacity="0.5"/>
<ellipse cx="140.518" cy="14.375" rx="3.26786" ry="2.875" fill="#102A27" fill-opacity="0.5"/>
<ellipse cx="179.732" cy="14.375" rx="3.26786" ry="2.875" fill="#102A27" fill-opacity="0.5"/>
<ellipse cx="3.26786" cy="31.625" rx="3.26786" ry="2.875" fill="#102A27" fill-opacity="0.5"/>
<ellipse cx="42.4817" cy="31.625" rx="3.26786" ry="2.875" fill="#102A27" fill-opacity="0.5"/>
<ellipse cx="81.6966" cy="31.625" rx="3.26786" ry="2.875" fill="#102A27" fill-opacity="0.5"/>
<ellipse cx="120.91" cy="31.625" rx="3.26786" ry="2.875" fill="#102A27" fill-opacity="0.5"/>
<ellipse cx="160.125" cy="31.625" rx="3.26786" ry="2.875" fill="#102A27" fill-opacity="0.5"/>
<ellipse cx="22.8753" cy="25.875" rx="3.26786" ry="2.875" fill="#102A27" fill-opacity="0.5"/>
<ellipse cx="62.0891" cy="25.875" rx="3.26786" ry="2.875" fill="#102A27" fill-opacity="0.5"/>
<ellipse cx="101.304" cy="25.875" rx="3.26786" ry="2.875" fill="#102A27" fill-opacity="0.5"/>
<ellipse cx="140.518" cy="25.875" rx="3.26786" ry="2.875" fill="#102A27" fill-opacity="0.5"/>
<ellipse cx="179.732" cy="25.875" rx="3.26786" ry="2.875" fill="#102A27" fill-opacity="0.5"/>
<ellipse cx="3.26786" cy="43.125" rx="3.26786" ry="2.875" fill="#102A27" fill-opacity="0.5"/>
<ellipse cx="42.4817" cy="43.125" rx="3.26786" ry="2.875" fill="#102A27" fill-opacity="0.5"/>
<ellipse cx="81.6966" cy="43.125" rx="3.26786" ry="2.875" fill="#102A27" fill-opacity="0.5"/>
<ellipse cx="120.91" cy="43.125" rx="3.26786" ry="2.875" fill="#102A27" fill-opacity="0.5"/>
<ellipse cx="160.125" cy="43.125" rx="3.26786" ry="2.875" fill="#102A27" fill-opacity="0.5"/>
<ellipse cx="22.8753" cy="37.375" rx="3.26786" ry="2.875" fill="#102A27" fill-opacity="0.5"/>
<ellipse cx="62.0891" cy="37.375" rx="3.26786" ry="2.875" fill="#102A27" fill-opacity="0.5"/>
<ellipse cx="101.304" cy="37.375" rx="3.26786" ry="2.875" fill="#102A27" fill-opacity="0.5"/>
<ellipse cx="140.518" cy="37.375" rx="3.26786" ry="2.875" fill="#102A27" fill-opacity="0.5"/>
<ellipse cx="179.732" cy="37.375" rx="3.26786" ry="2.875" fill="#102A27" fill-opacity="0.5"/>
<ellipse cx="3.26786" cy="54.625" rx="3.26786" ry="2.875" fill="#102A27" fill-opacity="0.5"/>
<ellipse cx="42.4817" cy="54.625" rx="3.26786" ry="2.875" fill="#102A27" fill-opacity="0.5"/>
<ellipse cx="81.6966" cy="54.625" rx="3.26786" ry="2.875" fill="#102A27" fill-opacity="0.5"/>
<ellipse cx="120.91" cy="54.625" rx="3.26786" ry="2.875" fill="#102A27" fill-opacity="0.5"/>
<ellipse cx="160.125" cy="54.625" rx="3.26786" ry="2.875" fill="#102A27" fill-opacity="0.5"/>
<ellipse cx="22.8753" cy="48.875" rx="3.26786" ry="2.875" fill="#102A27" fill-opacity="0.5"/>
<ellipse cx="62.0891" cy="48.875" rx="3.26786" ry="2.875" fill="#102A27" fill-opacity="0.5"/>
<ellipse cx="101.304" cy="48.875" rx="3.26786" ry="2.875" fill="#102A27" fill-opacity="0.5"/>
<ellipse cx="140.518" cy="48.875" rx="3.26786" ry="2.875" fill="#102A27" fill-opacity="0.5"/>
<ellipse cx="179.732" cy="48.875" rx="3.26786" ry="2.875" fill="#102A27" fill-opacity="0.5"/>
<ellipse cx="3.26786" cy="66.125" rx="3.26786" ry="2.875" fill="#102A27" fill-opacity="0.5"/>
<ellipse cx="42.4817" cy="66.125" rx="3.26786" ry="2.875" fill="#102A27" fill-opacity="0.5"/>
<ellipse cx="81.6966" cy="66.125" rx="3.26786" ry="2.875" fill="#102A27" fill-opacity="0.5"/>
<ellipse cx="120.91" cy="66.125" rx="3.26786" ry="2.875" fill="#102A27" fill-opacity="0.5"/>
<ellipse cx="160.125" cy="66.125" rx="3.26786" ry="2.875" fill="#102A27" fill-opacity="0.5"/>
<ellipse cx="22.8753" cy="60.375" rx="3.26786" ry="2.875" fill="#102A27" fill-opacity="0.5"/>
<ellipse cx="62.0891" cy="60.375" rx="3.26786" ry="2.875" fill="#102A27" fill-opacity="0.5"/>
<ellipse cx="101.304" cy="60.375" rx="3.26786" ry="2.875" fill="#102A27" fill-opacity="0.5"/>
<ellipse cx="140.518" cy="60.375" rx="3.26786" ry="2.875" fill="#102A27" fill-opacity="0.5"/>
<ellipse cx="179.732" cy="60.375" rx="3.26786" ry="2.875" fill="#102A27" fill-opacity="0.5"/>
<ellipse cx="3.26786" cy="77.625" rx="3.26786" ry="2.875" fill="#102A27" fill-opacity="0.5"/>
<ellipse cx="42.4817" cy="77.625" rx="3.26786" ry="2.875" fill="#102A27" fill-opacity="0.5"/>
<ellipse cx="81.6966" cy="77.625" rx="3.26786" ry="2.875" fill="#102A27" fill-opacity="0.5"/>
<ellipse cx="120.91" cy="77.625" rx="3.26786" ry="2.875" fill="#102A27" fill-opacity="0.5"/>
<ellipse cx="160.125" cy="77.625" rx="3.26786" ry="2.875" fill="#102A27" fill-opacity="0.5"/>
<ellipse cx="22.8753" cy="71.875" rx="3.26786" ry="2.875" fill="#102A27" fill-opacity="0.5"/>
<ellipse cx="62.0891" cy="71.875" rx="3.26786" ry="2.875" fill="#102A27" fill-opacity="0.5"/>
<ellipse cx="101.304" cy="71.875" rx="3.26786" ry="2.875" fill="#102A27" fill-opacity="0.5"/>
<ellipse cx="140.518" cy="71.875" rx="3.26786" ry="2.875" fill="#102A27" fill-opacity="0.5"/>
<ellipse cx="179.732" cy="71.875" rx="3.26786" ry="2.875" fill="#102A27" fill-opacity="0.5"/>
<ellipse cx="3.26786" cy="89.125" rx="3.26786" ry="2.875" fill="#102A27" fill-opacity="0.5"/>
<ellipse cx="42.4817" cy="89.125" rx="3.26786" ry="2.875" fill="#102A27" fill-opacity="0.5"/>
<ellipse cx="81.6966" cy="89.125" rx="3.26786" ry="2.875" fill="#102A27" fill-opacity="0.5"/>
<ellipse cx="120.91" cy="89.125" rx="3.26786" ry="2.875" fill="#102A27" fill-opacity="0.5"/>
<ellipse cx="160.125" cy="89.125" rx="3.26786" ry="2.875" fill="#102A27" fill-opacity="0.5"/>
<ellipse cx="22.8753" cy="83.375" rx="3.26786" ry="2.875" fill="#102A27" fill-opacity="0.5"/>
<ellipse cx="62.0891" cy="83.375" rx="3.26786" ry="2.875" fill="#102A27" fill-opacity="0.5"/>
<ellipse cx="101.304" cy="83.375" rx="3.26786" ry="2.875" fill="#102A27" fill-opacity="0.5"/>
<ellipse cx="140.518" cy="83.375" rx="3.26786" ry="2.875" fill="#102A27" fill-opacity="0.5"/>
<ellipse cx="179.732" cy="83.375" rx="3.26786" ry="2.875" fill="#102A27" fill-opacity="0.5"/>
<ellipse cx="3.26786" cy="100.625" rx="3.26786" ry="2.875" fill="#102A27" fill-opacity="0.5"/>
<ellipse cx="42.4817" cy="100.625" rx="3.26786" ry="2.875" fill="#102A27" fill-opacity="0.5"/>
<ellipse cx="81.6966" cy="100.625" rx="3.26786" ry="2.875" fill="#102A27" fill-opacity="0.5"/>
<ellipse cx="120.91" cy="100.625" rx="3.26786" ry="2.875" fill="#102A27" fill-opacity="0.5"/>
<ellipse cx="160.125" cy="100.625" rx="3.26786" ry="2.875" fill="#102A27" fill-opacity="0.5"/>
<ellipse cx="22.8753" cy="94.875" rx="3.26786" ry="2.875" fill="#102A27" fill-opacity="0.5"/>
<ellipse cx="62.0891" cy="94.875" rx="3.26786" ry="2.875" fill="#102A27" fill-opacity="0.5"/>
<ellipse cx="101.304" cy="94.875" rx="3.26786" ry="2.875" fill="#102A27" fill-opacity="0.5"/>
<ellipse cx="140.518" cy="94.875" rx="3.26786" ry="2.875" fill="#102A27" fill-opacity="0.5"/>
<ellipse cx="179.732" cy="94.875" rx="3.26786" ry="2.875" fill="#102A27" fill-opacity="0.5"/>
<ellipse cx="3.26786" cy="112.125" rx="3.26786" ry="2.875" fill="#102A27" fill-opacity="0.5"/>
<ellipse cx="42.4817" cy="112.125" rx="3.26786" ry="2.875" fill="#102A27" fill-opacity="0.5"/>
<ellipse cx="81.6966" cy="112.125" rx="3.26786" ry="2.875" fill="#102A27" fill-opacity="0.5"/>
<ellipse cx="120.91" cy="112.125" rx="3.26786" ry="2.875" fill="#102A27" fill-opacity="0.5"/>
<ellipse cx="160.125" cy="112.125" rx="3.26786" ry="2.875" fill="#102A27" fill-opacity="0.5"/>
<ellipse cx="22.8753" cy="106.375" rx="3.26786" ry="2.875" fill="#102A27" fill-opacity="0.5"/>
<ellipse cx="62.0891" cy="106.375" rx="3.26786" ry="2.875" fill="#102A27" fill-opacity="0.5"/>
<ellipse cx="101.304" cy="106.375" rx="3.26786" ry="2.875" fill="#102A27" fill-opacity="0.5"/>
<ellipse cx="140.518" cy="106.375" rx="3.26786" ry="2.875" fill="#102A27" fill-opacity="0.5"/>
<ellipse cx="179.732" cy="106.375" rx="3.26786" ry="2.875" fill="#102A27" fill-opacity="0.5"/>
<ellipse cx="3.26786" cy="123.625" rx="3.26786" ry="2.875" fill="#102A27" fill-opacity="0.5"/>
<ellipse cx="42.4817" cy="123.625" rx="3.26786" ry="2.875" fill="#102A27" fill-opacity="0.5"/>
<ellipse cx="81.6966" cy="123.625" rx="3.26786" ry="2.875" fill="#102A27" fill-opacity="0.5"/>
<ellipse cx="120.91" cy="123.625" rx="3.26786" ry="2.875" fill="#102A27" fill-opacity="0.5"/>
<ellipse cx="160.125" cy="123.625" rx="3.26786" ry="2.875" fill="#102A27" fill-opacity="0.5"/>
<ellipse cx="22.8753" cy="117.875" rx="3.26786" ry="2.875" fill="#102A27" fill-opacity="0.5"/>
<ellipse cx="62.0891" cy="117.875" rx="3.26786" ry="2.875" fill="#102A27" fill-opacity="0.5"/>
<ellipse cx="101.304" cy="117.875" rx="3.26786" ry="2.875" fill="#102A27" fill-opacity="0.5"/>
<ellipse cx="140.518" cy="117.875" rx="3.26786" ry="2.875" fill="#102A27" fill-opacity="0.5"/>
<ellipse cx="179.732" cy="117.875" rx="3.26786" ry="2.875" fill="#102A27" fill-opacity="0.5"/>
<ellipse cx="3.26786" cy="135.125" rx="3.26786" ry="2.875" fill="#102A27" fill-opacity="0.5"/>
<ellipse cx="42.4817" cy="135.125" rx="3.26786" ry="2.875" fill="#102A27" fill-opacity="0.5"/>
<ellipse cx="81.6966" cy="135.125" rx="3.26786" ry="2.875" fill="#102A27" fill-opacity="0.5"/>
<ellipse cx="120.91" cy="135.125" rx="3.26786" ry="2.875" fill="#102A27" fill-opacity="0.5"/>
<ellipse cx="160.125" cy="135.125" rx="3.26786" ry="2.875" fill="#102A27" fill-opacity="0.5"/>
<ellipse cx="22.8753" cy="129.375" rx="3.26786" ry="2.875" fill="#102A27" fill-opacity="0.5"/>
<ellipse cx="62.0891" cy="129.375" rx="3.26786" ry="2.875" fill="#102A27" fill-opacity="0.5"/>
<ellipse cx="101.304" cy="129.375" rx="3.26786" ry="2.875" fill="#102A27" fill-opacity="0.5"/>
<ellipse cx="140.518" cy="129.375" rx="3.26786" ry="2.875" fill="#102A27" fill-opacity="0.5"/>
<ellipse cx="179.732" cy="129.375" rx="3.26786" ry="2.875" fill="#102A27" fill-opacity="0.5"/>
</g>
</svg>
